<?xml version="1.0" encoding="utf-8"?>
<!-- Generator: Adobe Illustrator 26.0.3, SVG Export Plug-In . SVG Version: 6.00 Build 0)  -->
<svg version="1.0" id="svg3223" xmlns:svg="http://www.w3.org/2000/svg"
	 xmlns="http://www.w3.org/2000/svg" xmlns:xlink="http://www.w3.org/1999/xlink" x="0px" y="0px" viewBox="0 0 1312 881.2"
	 style="enable-background:new 0 0 1312 881.2;" xml:space="preserve">
<style type="text/css">
	.st0{fill:#233F8C;}
</style>
<path id="path3145" class="st0" d="M460.7,275.7h73.2v46.7h-73.2V275.7z"/>
<path id="path3157" class="st0" d="M352.7,383h79.7c0,0-18.2-100.5-132.1-109.5c0,0-102.8-5.3-139,98.3c0,0-28.4,69,25.9,135.2
	c0,0,35.4,48.9,108.1,50.1c0,0,59.6,4.9,104.4-47.3c0,0,30.1-34.8,32.3-63.9h-78.4c0,0-21.9,45-69,35.6c0,0-44.4-1.7-55.4-55.9
	c0,0-7.8-52.4,42-73.3C271.4,352.4,325.9,334.2,352.7,383"/>
<path id="path3161" class="st0" d="M460.7,343.7h73v208.6h-73.1L460.7,343.7z"/>
<path id="path3173" class="st0" d="M649.9,470.8c9.5,13.3,27.3,21.4,43.4,17.3c3.4-0.8,6.5-2.8,9.9-3.6
	c14.1-7.9,23.4-24.6,21.6-42.3c-2.5-12.3-10.4-24.8-22.1-30.4c-9.3-5.2-22.8-6.1-32.3-2.5c-8,3.2-15.2,8.3-20.5,15.7
	C640.8,437.9,641.2,457.9,649.9,470.8 M643.1,363.9c0,0,14.4-14,26.7-18.5c0,0,26.3-10.5,56.5,1.4c0,0,29.8,8,53.4,40.3
	c0,0,22.2,30,18.9,66c0,0,0.2,39.9-30.4,69.1c0,0-28.2,32.3-73,31.9c0,0-24.3,4.9-52.2-22.6v76.5h-73.6v-264h73.6v19.1"/>
<path id="path3175" class="st0" d="M826.6,275h73.6v277.4h-73.6V275z"/>
<path id="path3187" class="st0" d="M999.7,452.6c1.8,16.9,14.4,30.1,28.7,35.2c15.5,5.1,34.2-0.2,44.8-13.1
	c9.4-11.3,11.4-27.1,6.6-40.9c-5.3-15.3-21.6-25.8-37.7-26.3c-13.8-0.1-26.8,6.6-35.1,17.5C1002,433.4,998.8,442.7,999.7,452.6
	 M1082.3,343.7h75.6v208.6h-75.6v-19.3c0,0-22.3,23.5-49.9,21.4c0,0-58.6,3-90.4-52.1c0,0-17.8-29.6-14.5-57.6c0,0,0.3-26.3,13.4-48
	c0,0,10.7-19.7,25.5-31c0,0,26.3-20,45.8-21.1c0,0,40.8-12.3,70.2,19.2V343.7z"/>
</svg>
