<?xml version="1.0" encoding="utf-8"?>
<!-- Generator: Adobe Illustrator 19.2.1, SVG Export Plug-In . SVG Version: 6.00 Build 0)  -->
<svg version="1.1" id="layer" xmlns="http://www.w3.org/2000/svg" xmlns:xlink="http://www.w3.org/1999/xlink" x="0px" y="0px"
	 viewBox="0 0 652 652" style="enable-background:new 0 0 652 652;" xml:space="preserve">
<style type="text/css">
	.st0{fill:#ED1C24;}
</style>
<path class="st0" d="M20.3,256.1h28.6v130.7H20.3V256.1z M226,255.8h105.1V275c0,4.3-3.3,7.9-7.4,7.9h-30.8v103.8h-28.6V282.9h-30.9
	c-4,0-7.4-3.5-7.4-7.9V255.8z M206.6,364.9c0.1-1.4,0.2-2.9,0.1-4.4l0.1-104.5h-28.5l-0.1,96.1c0,0,0,1-0.9,0.9l-0.6-0.5l-54.5-82.7
	c-2-2.7-3.1-4.2-3.9-5.2l-0.1-0.1c-4.5-5.8-11.6-9.4-19.5-9.4c-8.4,0-15.8,4.1-20.3,10.5c-3.3,4.5-5.3,10.6-5.4,18.3v1.1l0.1,101.9
	h28.6l-0.1-93.1l0-2.8c0-1.3,1.2-1.2,1.5-0.6l55.6,83.9l3.3,4.4l0.6,0.7c5.1,5.5,12,8.3,19,8.3h0.9c9.7-0.4,17.9-5.7,21.8-14.1
	C205.5,370.9,206.3,368,206.6,364.9 M486.6,358.7l2.6-0.3h0.2c2.1,0,5.3-0.3,7.6-1.3c5.3-2.3,7.4-4,15.6-14.6
	c1.1-1.4,2.4-3.4,3.8-5.3c3.2-4.6,7.1-10.3,11.9-15.5l0.4-0.4l-0.4-0.4c-4.8-5.1-8.8-10.8-11.9-15.4l-0.1-0.1
	c-1.3-1.9-2.7-3.8-3.7-5.2c-8.3-10.7-10.3-12.3-15.6-14.6c-2-0.8-4.6-1.1-6-1.2l-1.7,0v0l0,0l-2.7,0.1V257l2.3-0.1h0.5
	c3.1,0,11.1,0.3,18.5,3.6c11.1,4.8,16.6,10.2,26.5,23c1.5,1.9,3,4.1,4.6,6.4l0.1,0.1c2.4,3.5,5.2,7.5,8.1,10.9l0.2,0.2
	c1.8,2,4.4,3.2,7.1,3.2c2.7,0,5.3-1.1,7-3.1c3-3.4,5.7-7.4,8.2-10.9c1.7-2.3,3.2-4.6,4.6-6.5c9.9-12.8,15.4-18.2,26.5-23
	c7.4-3.2,15.3-3.6,18.4-3.6h0.6l0.6,0.1v27.4l-0.9-0.2h-0.2c-2.1,0-5.4,0.4-7.6,1.3c-5.3,2.3-7.4,3.9-15.6,14.6
	c-1.1,1.4-2.5,3.5-3.7,5.3c-3.2,4.6-7.1,10.2-11.8,15.3l-0.4,0.4l0.4,0.4c4.7,5.1,8.6,10.7,11.8,15.3c1.4,1.9,2.7,3.9,3.8,5.3
	c8.3,10.7,10.3,12.3,15.6,14.6c2.2,1,5.5,1.3,7.6,1.3h0.2l1-0.3v27.5l-1.2,0.1c-3.1,0-11-0.4-18.4-3.6c-11.1-4.8-16.6-10.2-26.5-23
	c-1.5-2-3.1-4.2-4.6-6.4c-2.5-3.6-5.2-7.6-8.2-10.9c-1.8-2.1-4.4-3.2-7.1-3.2c-2.7,0-5.1,1.1-7,3.1c-3,3.4-5.8,7.5-8.3,11.2
	l-0.1,0.1c-1.6,2.3-3.1,4.4-4.6,6.4c-9.9,12.8-15.3,18.2-26.5,23c-7.4,3.2-15.4,3.6-18.5,3.6l-0.6,0l-2.2,0.3V358.7z M412.5,386.1
	c-5.9,0-11.6-0.4-17-1.1c-2.2-0.3-6.5-1.2-6.9-1.3l-2.5-0.6l-0.3-0.1c-14-3.1-26.8-10.9-35.9-22.1c-9.3-11.4-14.5-25.7-14.5-40.4
	c0-17,6.6-33,18.6-45c10.5-10.5,24.4-17.2,39.2-18.7l3.9-0.3l2,0h30.6c0.7,0,1.8,0.1,2.4,0.1c18.4,1.2,32.9,16.6,32.9,35.2
	c0,18.4-14.4,33.9-32.7,35.2h-0.1l-0.4,0l-0.5,0h-4l-0.3,0h-0.5l-30.8,0l-0.2,0l-14.8-0.1l-0.1-0.4c-0.6-3.1-3.2-19,12.2-24.9
	c0.1,0,3.4-1.2,7.4-1.2h29.7c1.8,0,3.6-0.9,5-2.4c1.5-1.7,2.4-4,2.2-6.4c-0.3-4-3.3-7.1-7.1-7.1H399l-0.1,0
	c-19.5,0.5-35.4,16.7-35.4,36c0,16.6,11.3,31.4,27.6,35.3c0,0,10,3.1,21.5,3.1c14.5,0,28.4-2.3,42-9.8c2.6-1.4,10.2-6,10.2-6
	l-0.1,29.9l-5.7,2.8C443.8,382.5,429.2,386.1,412.5,386.1"/>
</svg>
